<?xml version="1.0" encoding="UTF-8" standalone="no"?>
<svg
   viewBox="0 0 128 128"
   fill="#ffffff"
   fill-rule="evenodd"
   stroke="#000000"
   stroke-linecap="round"
   stroke-linejoin="round"
   version="1.1"
   id="svg11"
   sodipodi:docname="aioquic.svg"
   inkscape:version="1.1.2 (0a00cf5339, 2022-02-04)"
   width="128"
   height="128"
   xmlns:inkscape="http://www.inkscape.org/namespaces/inkscape"
   xmlns:sodipodi="http://sodipodi.sourceforge.net/DTD/sodipodi-0.dtd"
   xmlns:xlink="http://www.w3.org/1999/xlink"
   xmlns="http://www.w3.org/2000/svg"
   xmlns:svg="http://www.w3.org/2000/svg">
  <defs
     id="defs15" />
  <sodipodi:namedview
     id="namedview13"
     pagecolor="#ffffff"
     bordercolor="#666666"
     borderopacity="1.0"
     inkscape:pageshadow="2"
     inkscape:pageopacity="0.0"
     inkscape:pagecheckerboard="0"
     showgrid="false"
     inkscape:zoom="4.2554973"
     inkscape:cx="44.530636"
     inkscape:cy="56.397639"
     inkscape:window-width="1920"
     inkscape:window-height="997"
     inkscape:window-x="0"
     inkscape:window-y="0"
     inkscape:window-maximized="1"
     inkscape:current-layer="svg11"
     width="128px" />
  <use
     xlink:href="#A"
     x="0.5"
     y="0.5"
     id="use2"
     width="100%"
     height="100%"
     transform="matrix(1.8856723,0,0,1.8856723,3.1727236,11.814102)" />
  <symbol
     id="A"
     overflow="visible">
    <g
       stroke="none"
       fill-rule="nonzero"
       id="g8">
      <path
         d="m 23.056,25.65 29.274,16.9 c -0.024,0.008 -0.136,0.104 -0.255,0.176 L 34.512,52.9 c -1.732,0.998 -3.465,0.894 -5.173,-0.08 L 2.722,37.402 C 0.894,36.357 0,34.784 0,32.676 v -12.07 c 0,-2.475 1.692,-4.43 4.127,-4.8 1.062,-0.152 2.06,0.072 2.986,0.615 l 4.263,2.483 c 0.295,0.176 0.52,0.208 0.822,0 l 1.764,-1.03 -7.1,-4.07 c 1.1,-0.703 2.355,-0.974 3.696,-0.623 a 6.65,6.65 0 0 1 1.485,0.63 l 4.143,2.395 a 0.57,0.57 0 0 0 0.679,0 l 1.836,-1.07 -7.17,-4.087 3.105,-1.804 14.697,-8.478 c 1.764,-1.022 3.537,-1.022 5.3,0 l 26.8,15.496 c 1.676,0.966 2.54,2.467 2.54,4.4 V 32.83 c 0,1.924 -0.806,3.433 -2.475,4.383 -1.637,0.934 -3.3,0.806 -4.926,-0.144 L 30.3,21.86 a 0.56,0.56 0 0 0 -0.68,0 l -1.8,1.06 29.235,16.893 a 4.1,4.1 0 0 1 -3.018,0.711 6.38,6.38 0 0 1 -2.14,-0.742 l -26.2,-15.144 c -0.32,-0.184 -0.55,-0.216 -0.862,0 -0.535,0.35 -1.1,0.647 -1.74,1.014 z m 18.002,12.85 -0.543,-0.335 -5.804,-3.37 c -0.447,-0.27 -0.806,-0.303 -1.23,0.024 -0.36,0.263 -0.742,0.48 -1.142,0.663 -0.184,0.08 -0.47,0.112 -0.63,0.024 l -14.673,-8.47 -0.27,-0.224 0.295,-0.192 14.617,-8.47 c 0.287,-0.16 0.487,-0.104 0.742,0.048 l 14.92,8.63 -2.028,1.182 0.088,0.136 6.6,3.816 c 0.112,0.064 0.335,0.032 0.455,-0.04 l 1.892,-1.102 a 0.62,0.62 0 0 0 0.255,-0.43 l 0.008,-6.57 c 0.008,-0.64 -0.184,-0.974 -0.742,-1.3 L 32.74,10.307 c -0.55,-0.32 -0.926,-0.32 -1.453,0 l -8.2,4.742 L 9.79,22.73 c -0.295,0.176 -0.43,0.36 -0.415,0.726 v 6.77 a 0.66,0.66 0 0 0 0.367,0.655 l 21.882,12.66 a 0.71,0.71 0 0 0 0.8,-0.008 l 2.427,-1.405 z"
         fill="#306998"
         id="path4" />
      <path
         d="m 41.058,38.512 -8.662,5.014 a 0.67,0.67 0 0 1 -0.79,0.008 L 9.724,30.872 C 9.454,30.72 9.357,30.537 9.357,30.217 v -6.77 c 0,-0.36 0.12,-0.55 0.415,-0.726 l 13.308,-7.68 8.2,-4.742 c 0.527,-0.32 0.918,-0.32 1.453,0 l 21.14,12.222 c 0.56,0.32 0.766,0.663 0.742,1.3 l -0.008,6.57 c -0.024,0.176 -0.112,0.327 -0.255,0.43 l -1.892,1.102 c -0.12,0.072 -0.343,0.104 -0.455,0.04 l -6.6,-3.816 c -0.032,-0.024 -0.04,-0.048 -0.088,-0.136 L 47.337,26.837 32.422,18.2 C 32.167,18.048 31.975,17.984 31.68,18.152 l -14.617,8.47 -0.295,0.192 c 0.08,0.08 0.176,0.152 0.27,0.224 l 14.673,8.47 c 0.16,0.088 0.447,0.064 0.63,-0.024 a 5.9,5.9 0 0 0 1.142,-0.663 c 0.43,-0.327 0.774,-0.287 1.23,-0.024 l 5.804,3.37 0.55,0.343 z"
         fill="#ffd43b"
         id="path6" />
    </g>
  </symbol>
  <circle
     style="fill:#ffffff;fill-rule:evenodd;stroke:none;stroke-width:9.23195;paint-order:stroke fill markers"
     id="path260"
     cx="101.80765"
     cy="62.372536"
     r="2.6127114" />
</svg>
